<svg xmlns="http://www.w3.org/2000/svg" width="20" height="19.011" viewBox="0 0 20 19.011">
  <path id="Shape" d="M15,19.011a4.947,4.947,0,0,1-5-5,5.056,5.056,0,0,1,.822-2.788,4.893,4.893,0,0,1,2.147-1.806l-.407-1.844C9.4,7.948,7.074,10.583,6.219,11.7A3.982,3.982,0,1,1,4,11.011a.8.8,0,0,1,.137.016.894.894,0,0,0,.113.015A10.725,10.725,0,0,1,5,10.011L3.406,8.135l-.131.024A1.639,1.639,0,0,1,3,8.2c-1.346,0-2-.716-2-2.188H7c0,.909-.2,1.106-1,1.407-.053.017-.145.047-.24.079l-.229.076.843.938a10.414,10.414,0,0,1,5.782-2.938l-.219-.938-.219-1,1-.219a3.045,3.045,0,0,0,.781-.25,1.7,1.7,0,0,0,.437-.312c.065-.072.065-.1.063-.137,0-.006,0-.012,0-.019,0-.232-.016-.246-.076-.3l-.019-.016a1.574,1.574,0,0,0-.656-.249A13.836,13.836,0,0,0,10.9,2.009H10v-2h.106c.2,0,.4,0,.6,0,.232,0,.472-.005.708-.005a11.551,11.551,0,0,1,2.213.167,3.3,3.3,0,0,1,1.624.75A2.4,2.4,0,0,1,16,2.7a2.309,2.309,0,0,1-.594,1.5,3.275,3.275,0,0,1-1,.751.961.961,0,0,1-.211.082c-.034.009-.072.02-.133.042l.875,3.938H15a5,5,0,0,1,0,10Zm-1.562-7.563a3.01,3.01,0,1,0,1.937-.407l.594,2.75h-.032a.679.679,0,0,0,.027.075A.379.379,0,0,1,16,14.01a1,1,0,0,1-1,1,.972.972,0,0,1-.938-.781h-.032L14,14.01ZM4,13.01a2,2,0,1,0,2,2A2.026,2.026,0,0,0,4.625,13.1a.885.885,0,0,1-.094-.031l-.019,0-.028,0-.028,0-.019,0-.016-.015-.016-.015A1.96,1.96,0,0,0,4,13.01Z" transform="translate(0 0)"/>
</svg>
